# xmcd
# 
# Track frame offsets:
#     150
#     7213
#     28265
#     55940
#     74752
#     94318
#     116279
#     137017
#     145255
#     169356
#     185810
# 
# Disc length: 2940
# 
# Revision: 1
# Processed by: cddbd v1.5.2PL0 Copyright (c) Steve Scherf et al.
# Submitted via: BonkEnc v1.0
# 
DISCID=ac0b7a0b
DTITLE=JABBERLOOP - and infinite jazz...
DYEAR=2007
DGENRE=Jazz
TTITLE0=INTO THE INFINITE JAZZ
TTITLE1=ATMOSPHERE ENTRY
TTITLE2=IN:GROOVE
TTITLE3=UGETSU
TTITLE4=MISSING MY BIRD
TTITLE5=THE ART OF BLAKEY
TTITLE6=RE:LOOP
TTITLE7=HOCK ME UP
TTITLE8=SOURCE OF SPRING
TTITLE9=Q-TRACK
TTITLE10=LOOK TO THE SKY
EXTD=YEAR: 2007
EXTT0=
EXTT1=
EXTT2=
EXTT3=
EXTT4=
EXTT5=
EXTT6=
EXTT7=
EXTT8=
EXTT9=
EXTT10=
PLAYORDER=
